<svg width="36" height="36" viewBox="0 0 36 36" fill="none" xmlns="http://www.w3.org/2000/svg">
<path d="M30.7309 25.71L24.6334 20.166C24.3452 19.904 23.9664 19.7643 23.5771 19.7763C23.1878 19.7884 22.8184 19.9512 22.5469 20.2305L18.9574 23.922C18.0934 23.757 16.3564 23.2155 14.5684 21.432C12.7804 19.6425 12.2389 17.901 12.0784 17.043L15.7669 13.452C16.0465 13.1807 16.2096 12.8112 16.2217 12.4218C16.2337 12.0324 16.0938 11.6536 15.8314 11.3655L10.2889 5.26949C10.0265 4.98053 9.66174 4.80525 9.27215 4.78088C8.88256 4.75651 8.49882 4.88498 8.20242 5.13899L4.94742 7.93049C4.68809 8.19077 4.5333 8.53717 4.51242 8.90399C4.48992 9.27899 4.06092 18.162 10.9489 25.053C16.9579 31.0605 24.4849 31.5 26.5579 31.5C26.8609 31.5 27.0469 31.491 27.0964 31.488C27.4632 31.4675 27.8094 31.312 28.0684 31.0515L30.8584 27.795C31.1134 27.4995 31.2429 27.1161 31.219 26.7265C31.1952 26.337 31.02 25.9722 30.7309 25.71Z" fill="#0C3BDC"/>
</svg>
