<svg width="32" height="32" viewBox="0 0 32 32" fill="none" xmlns="http://www.w3.org/2000/svg">
<path d="M18.828 13.9732C18.5779 13.7232 18.2388 13.5828 17.8853 13.5828C17.5317 13.5828 17.1927 13.7232 16.9426 13.9732L16 14.9145C15.754 15.1692 15.4597 15.3723 15.1344 15.5121C14.809 15.6519 14.4591 15.7254 14.105 15.7285C13.7509 15.7316 13.3998 15.6641 13.0721 15.53C12.7444 15.3959 12.4466 15.1979 12.1962 14.9475C11.9459 14.6972 11.7478 14.3994 11.6138 14.0717C11.4797 13.744 11.4122 13.3928 11.4153 13.0388C11.4184 12.6847 11.4919 12.3348 11.6317 12.0094C11.7714 11.6841 11.9746 11.3898 12.2293 11.1438L19.736 3.63449C21.5132 3.23026 23.3726 3.39662 25.0499 4.10992C26.7271 4.82322 28.1368 6.04715 29.0785 7.60768C30.0201 9.1682 30.4458 10.9859 30.2951 12.8023C30.1443 14.6186 29.4247 16.3413 28.2386 17.7252L25.428 20.5718L18.828 13.9718V13.9732ZM4.21462 5.95716C5.5943 4.57766 7.39892 3.70379 9.3367 3.47684C11.2745 3.24989 13.2322 3.68312 14.8933 4.70649L10.3426 9.25849C9.35702 10.2421 8.7952 11.5722 8.77721 12.9646C8.75921 14.3569 9.28647 15.7011 10.2463 16.7099C11.2062 17.7186 12.5225 18.312 13.914 18.3632C15.3055 18.4144 16.6619 17.9193 17.6933 16.9838L17.8853 16.8012L23.5426 22.4572L17.8853 28.1145C17.3852 28.6144 16.7071 28.8953 16 28.8953C15.2929 28.8953 14.6147 28.6144 14.1146 28.1145L4.21329 18.2132C2.58813 16.5879 1.67514 14.3836 1.67514 12.0852C1.67514 9.78674 2.58813 7.58245 4.21329 5.95716H4.21462Z" fill="#0C3BDC"/>
</svg>
