<svg width="101" height="40" viewBox="0 0 101 40" fill="none" xmlns="http://www.w3.org/2000/svg">
<path d="M51.323 26.422C51.0077 26.422 50.7253 26.4843 50.476 26.609C50.234 26.7337 50.0287 26.9133 49.86 27.148C49.6913 27.3753 49.563 27.654 49.475 27.984C49.3943 28.314 49.354 28.6843 49.354 29.095C49.354 29.6523 49.42 30.129 49.552 30.525C49.6913 30.9137 49.9077 31.2107 50.201 31.416C50.4943 31.6213 50.8683 31.724 51.323 31.724C51.6457 31.724 51.9647 31.6873 52.28 31.614C52.6027 31.5407 52.951 31.438 53.325 31.306V32.703C52.9803 32.8423 52.6393 32.945 52.302 33.011C51.9647 33.077 51.587 33.11 51.169 33.11C50.3623 33.11 49.695 32.945 49.167 32.615C48.6463 32.2777 48.2613 31.8083 48.012 31.207C47.7627 30.5983 47.638 29.8907 47.638 29.084C47.638 28.49 47.7187 27.9473 47.88 27.456C48.0413 26.9573 48.276 26.5283 48.584 26.169C48.8993 25.8097 49.2843 25.531 49.739 25.333C50.201 25.135 50.729 25.036 51.323 25.036C51.7117 25.036 52.1003 25.0873 52.489 25.19C52.885 25.2853 53.2627 25.4173 53.622 25.586L53.083 26.939C52.7897 26.7997 52.4927 26.6787 52.192 26.576C51.8987 26.4733 51.609 26.422 51.323 26.422ZM60.5599 33H56.0389V25.146H60.5599V26.51H57.6999V28.237H60.3619V29.601H57.6999V31.625H60.5599V33ZM65.7472 25.146C66.7592 25.146 67.4962 25.366 67.9582 25.806C68.4275 26.2387 68.6622 26.8363 68.6622 27.599C68.6622 27.9437 68.6108 28.2737 68.5082 28.589C68.4055 28.897 68.2332 29.1757 67.9912 29.425C67.7565 29.667 67.4448 29.8577 67.0562 29.997C66.6675 30.1363 66.1872 30.206 65.6152 30.206H64.9002V33H63.2392V25.146H65.7472ZM65.6592 26.51H64.9002V28.842H65.4502C65.7655 28.842 66.0368 28.8017 66.2642 28.721C66.4915 28.6403 66.6675 28.512 66.7922 28.336C66.9168 28.16 66.9792 27.9327 66.9792 27.654C66.9792 27.2653 66.8728 26.9793 66.6602 26.796C66.4475 26.6053 66.1138 26.51 65.6592 26.51ZM73.6334 25.146C74.3301 25.146 74.9131 25.212 75.3824 25.344C75.8591 25.4687 76.2147 25.6777 76.4494 25.971C76.6914 26.257 76.8124 26.6457 76.8124 27.137C76.8124 27.4303 76.7647 27.698 76.6694 27.94C76.5741 28.182 76.4347 28.38 76.2514 28.534C76.0754 28.688 75.8591 28.787 75.6024 28.831V28.886C75.8664 28.9373 76.1047 29.029 76.3174 29.161C76.5301 29.293 76.6987 29.4837 76.8234 29.733C76.9481 29.9823 77.0104 30.3123 77.0104 30.723C77.0104 31.1997 76.8931 31.6103 76.6584 31.955C76.4311 32.2923 76.1011 32.5527 75.6684 32.736C75.2357 32.912 74.7224 33 74.1284 33H71.1914V25.146H73.6334ZM73.8204 28.259C74.3044 28.259 74.6381 28.182 74.8214 28.028C75.0121 27.874 75.1074 27.6503 75.1074 27.357C75.1074 27.0563 74.9974 26.84 74.7774 26.708C74.5574 26.576 74.2091 26.51 73.7324 26.51H72.8524V28.259H73.8204ZM72.8524 29.579V31.625H73.9414C74.4401 31.625 74.7884 31.5297 74.9864 31.339C75.1844 31.141 75.2834 30.8807 75.2834 30.558C75.2834 30.36 75.2394 30.1877 75.1514 30.041C75.0707 29.8943 74.9277 29.7807 74.7224 29.7C74.5171 29.6193 74.2384 29.579 73.8864 29.579H72.8524ZM79.627 25.146H81.123V28.941C81.123 29.1243 81.1194 29.3297 81.112 29.557C81.1047 29.7843 81.0974 30.008 81.09 30.228C81.0827 30.4407 81.0754 30.6277 81.068 30.789C81.0607 30.943 81.0534 31.0493 81.046 31.108H81.079L84.709 25.146H86.7V33H85.215V29.227C85.215 29.029 85.2187 28.8127 85.226 28.578C85.2334 28.336 85.2407 28.105 85.248 27.885C85.2627 27.665 85.2737 27.4743 85.281 27.313C85.2957 27.1443 85.3067 27.0343 85.314 26.983H85.27L81.629 33H79.627V25.146ZM93.0607 26.422C92.7454 26.422 92.463 26.4843 92.2137 26.609C91.9717 26.7337 91.7664 26.9133 91.5977 27.148C91.429 27.3753 91.3007 27.654 91.2127 27.984C91.132 28.314 91.0917 28.6843 91.0917 29.095C91.0917 29.6523 91.1577 30.129 91.2897 30.525C91.429 30.9137 91.6454 31.2107 91.9387 31.416C92.232 31.6213 92.606 31.724 93.0607 31.724C93.3834 31.724 93.7024 31.6873 94.0177 31.614C94.3404 31.5407 94.6887 31.438 95.0627 31.306V32.703C94.718 32.8423 94.377 32.945 94.0397 33.011C93.7024 33.077 93.3247 33.11 92.9067 33.11C92.1 33.11 91.4327 32.945 90.9047 32.615C90.384 32.2777 89.999 31.8083 89.7497 31.207C89.5004 30.5983 89.3757 29.8907 89.3757 29.084C89.3757 28.49 89.4564 27.9473 89.6177 27.456C89.779 26.9573 90.0137 26.5283 90.3217 26.169C90.637 25.8097 91.022 25.531 91.4767 25.333C91.9387 25.135 92.4667 25.036 93.0607 25.036C93.4494 25.036 93.838 25.0873 94.2267 25.19C94.6227 25.2853 95.0004 25.4173 95.3597 25.586L94.8207 26.939C94.5274 26.7997 94.2304 26.6787 93.9297 26.576C93.6364 26.4733 93.3467 26.422 93.0607 26.422Z" fill="white"/>
<path d="M12.9052 3.93408C10.3773 3.93408 7.84935 4.90247 5.90961 6.84221C2.03013 10.7217 2.03013 16.9538 5.90961 20.8333L8.24146 23.1651C8.20878 23.3256 8.19096 23.486 8.19096 23.6493C8.19096 24.2553 8.41672 24.787 8.87418 25.2445L9.93762 26.3109C10.306 26.7505 10.8882 26.9733 11.4793 26.9882C11.5179 27.511 11.7348 28.0279 12.1447 28.4378L13.2111 29.5012C13.627 29.9201 14.1142 30.1369 14.6607 30.1726C14.6756 30.7548 14.8984 31.2687 15.338 31.7083L16.4014 32.7747C16.7698 33.2144 17.352 33.4372 17.9402 33.452C17.9728 33.9986 18.1897 34.4828 18.6085 34.9016L19.6749 35.9651C20.1294 36.4225 20.6612 36.6512 21.2701 36.6512C21.8018 36.6512 22.4108 36.4225 22.8653 35.9651L25.1466 33.6837C25.5387 33.3272 25.7496 32.8579 25.809 32.3648C26.2992 32.3054 26.7418 32.0915 27.125 31.7083L28.4944 30.3389C28.9043 29.929 29.1212 29.4121 29.1598 28.8893C29.7509 28.8745 30.3331 28.6517 30.7015 28.212L31.7649 27.1456C32.1927 26.7535 32.4095 26.2277 32.4392 25.6871C32.9977 25.6544 33.5472 25.4316 33.969 24.9385L35.0325 23.8751C35.882 23.0968 35.9325 21.7987 35.2018 20.8838C36.9692 19.0688 38 16.6033 38 13.9892C38 11.3277 37.0108 8.74333 35.1097 6.91647C31.2302 3.03996 24.9209 3.03996 21.0414 6.84221L20.471 7.41255L19.9007 6.84221C17.961 4.90247 15.4331 3.93408 12.9052 3.93408ZM12.9052 5.4728C15.035 5.4728 17.1649 6.30752 18.8373 7.90565L19.369 8.43737L15.4925 12.3169C14.1231 13.6863 14.1231 15.8904 15.4925 17.2598C16.1757 17.943 17.0876 18.3262 17.9996 18.3262C18.9115 18.3262 19.7492 18.0202 20.4354 17.334L24.9921 12.7773L33.8918 21.8225C34.1978 22.1255 34.1978 22.5829 33.8918 22.8889L32.8283 23.9523C32.5254 24.2553 32.0679 24.2553 31.7649 23.9523L27.125 19.3896C26.822 19.0866 26.3645 19.0866 26.0615 19.3896C25.7585 19.6926 25.7585 20.1501 26.0615 20.4531L30.7015 25.0158C31.0045 25.3188 31.0045 25.7762 30.7015 26.0792L29.6351 27.1456C29.3321 27.4486 28.8746 27.4486 28.5686 27.1456L24.0059 22.5829C23.8455 22.4195 23.6406 22.3512 23.4356 22.3601C23.2336 22.3512 23.0286 22.4195 22.8653 22.5829C22.5623 22.8859 22.5623 23.3434 22.8653 23.6493L27.428 28.212C27.5824 28.3635 27.6597 28.515 27.6597 28.7408C27.6597 28.9695 27.5824 29.124 27.428 29.2755L26.0615 30.6419C25.8863 30.8172 25.6635 30.8796 25.4496 30.8558C25.3635 30.7281 25.2625 30.6063 25.1466 30.4934L24.0832 29.427C23.6792 29.023 23.1178 28.821 22.5504 28.8061C22.5207 28.2655 22.3038 27.7219 21.8791 27.2971L20.8156 26.2337C20.4235 25.8089 19.9007 25.5891 19.363 25.5623C19.3482 24.9801 19.1254 24.4692 18.6828 24.0296L17.6194 22.9631C17.2154 22.5592 16.6539 22.3572 16.0866 22.3423C16.0569 21.8017 15.84 21.2581 15.4152 20.8333L14.3518 19.7699C13.5141 18.8579 12.0675 18.8579 11.1555 19.7699L9.06429 21.8611L6.97305 19.7699C3.70253 16.4993 3.70253 11.1762 6.97305 7.90565C8.64545 6.30752 10.7753 5.4728 12.9052 5.4728ZM28.0399 5.55004C30.1668 5.55004 32.2966 6.38475 33.969 7.98288L34.0463 8.05715C35.6444 9.65528 36.4791 11.7079 36.4791 13.9892C36.4791 16.1429 35.6771 18.2192 34.1532 19.8025L25.6041 11.2504C25.5892 11.2386 25.5714 11.2326 25.5595 11.2207C25.5447 11.2059 25.5417 11.1881 25.5268 11.1762C25.2238 10.8732 24.7664 10.8732 24.4634 11.1762L19.369 16.2706C18.6085 17.031 17.3164 17.031 16.5559 16.2706C16.1757 15.8904 15.947 15.3587 15.947 14.8269C15.947 14.2952 16.1757 13.7635 16.5559 13.3833L20.9285 9.01068L20.9641 9.04632L22.1048 7.98288C23.7029 6.38475 25.91 5.55004 28.0399 5.55004ZM12.8309 20.5303C12.9824 20.5303 13.2081 20.6046 13.3596 20.7561L14.4261 21.8225C14.729 22.1255 14.729 22.5829 14.4261 22.8889L12.1447 25.1702C11.8417 25.4732 11.3843 25.4732 11.0783 25.1702L10.0149 24.1038C9.86336 23.9523 9.78909 23.8008 9.78909 23.5721C9.78909 23.3434 9.86336 23.1919 10.0149 23.0374L12.2962 20.7561C12.4477 20.6046 12.6022 20.5303 12.8309 20.5303ZM16.0212 23.7979C16.2499 23.7979 16.4044 23.8751 16.5559 24.0296L17.6194 25.093C17.7708 25.2445 17.8481 25.396 17.8481 25.6247C17.8481 25.8535 17.7708 26.0049 17.6194 26.1564L15.338 28.4378C15.035 28.7408 14.5776 28.7408 14.2746 28.4378L13.2111 27.3744C12.9052 27.0714 12.9052 26.6139 13.2111 26.3109L15.4925 24.0296C15.644 23.8751 15.7955 23.7979 16.0212 23.7979ZM19.2472 26.9941C19.4462 26.9941 19.6363 27.0684 19.7492 27.2199L20.8156 28.2863C21.1186 28.5893 21.1186 29.0467 20.8156 29.3527L18.5343 31.6341C18.2283 31.9371 17.7708 31.9371 17.4679 31.6341L16.4014 30.5676C16.2499 30.4162 16.1757 30.2647 16.1757 30.0359C16.1757 29.8072 16.2499 29.6557 16.4014 29.5012L18.6828 27.2199C18.8373 27.0684 19.0452 26.9941 19.2472 26.9941ZM22.485 30.2617C22.7138 30.2617 22.8682 30.3389 23.0197 30.4934L24.0832 31.5568C24.2347 31.7083 24.3119 31.8598 24.3119 32.0885C24.3119 32.3173 24.2347 32.4688 24.0832 32.6203L21.8018 34.9016C21.4988 35.2046 21.0414 35.2046 20.7384 34.9016L19.6749 33.8382C19.5205 33.6867 19.4432 33.5322 19.4432 33.3035C19.4432 33.0777 19.5205 32.9262 19.6749 32.7747L21.9563 30.4934C22.1078 30.3389 22.2593 30.2617 22.485 30.2617Z" fill="white"/>
<path d="M50.3 22H47.28V10.24H43.4V7.72H54.18V10.24H50.3V22ZM60.422 7.72C61.6887 7.72 62.7487 7.84 63.602 8.08C64.4687 8.30667 65.1154 8.68667 65.542 9.22C65.982 9.74 66.202 10.4467 66.202 11.34C66.202 11.8733 66.1154 12.36 65.942 12.8C65.7687 13.24 65.5154 13.6 65.182 13.88C64.862 14.16 64.4687 14.34 64.002 14.42V14.52C64.482 14.6133 64.9154 14.78 65.302 15.02C65.6887 15.26 65.9954 15.6067 66.222 16.06C66.4487 16.5133 66.562 17.1133 66.562 17.86C66.562 18.7267 66.3487 19.4733 65.922 20.1C65.5087 20.7133 64.9087 21.1867 64.122 21.52C63.3354 21.84 62.402 22 61.322 22H55.982V7.72H60.422ZM60.762 13.38C61.642 13.38 62.2487 13.24 62.582 12.96C62.9287 12.68 63.102 12.2733 63.102 11.74C63.102 11.1933 62.902 10.8 62.502 10.56C62.102 10.32 61.4687 10.2 60.602 10.2H59.002V13.38H60.762ZM59.002 15.78V19.5H60.982C61.8887 19.5 62.522 19.3267 62.882 18.98C63.242 18.62 63.422 18.1467 63.422 17.56C63.422 17.2 63.342 16.8867 63.182 16.62C63.0354 16.3533 62.7754 16.1467 62.402 16C62.0287 15.8533 61.522 15.78 60.882 15.78H59.002ZM81.9795 14.84C81.9795 15.9467 81.8395 16.9533 81.5595 17.86C81.2929 18.7533 80.8795 19.5267 80.3195 20.18C79.7729 20.8333 79.0662 21.3333 78.1995 21.68C77.3462 22.0267 76.3395 22.2 75.1795 22.2C74.0195 22.2 73.0062 22.0267 72.1395 21.68C71.2862 21.32 70.5795 20.82 70.0195 20.18C69.4729 19.5267 69.0595 18.7467 68.7795 17.84C68.5129 16.9333 68.3795 15.9267 68.3795 14.82C68.3795 13.34 68.6195 12.0533 69.0995 10.96C69.5929 9.86667 70.3395 9.02 71.3395 8.42C72.3529 7.80667 73.6395 7.5 75.1995 7.5C76.7462 7.5 78.0195 7.80667 79.0195 8.42C80.0195 9.02 80.7595 9.87333 81.2395 10.98C81.7329 12.0733 81.9795 13.36 81.9795 14.84ZM71.5595 14.84C71.5595 15.84 71.6862 16.7 71.9395 17.42C72.1929 18.14 72.5862 18.6933 73.1195 19.08C73.6529 19.4667 74.3395 19.66 75.1795 19.66C76.0462 19.66 76.7395 19.4667 77.2595 19.08C77.7929 18.6933 78.1795 18.14 78.4195 17.42C78.6729 16.7 78.7995 15.84 78.7995 14.84C78.7995 13.3333 78.5195 12.1533 77.9595 11.3C77.3995 10.4467 76.4795 10.02 75.1995 10.02C74.3462 10.02 73.6529 10.2133 73.1195 10.6C72.5862 10.9867 72.1929 11.54 71.9395 12.26C71.6862 12.98 71.5595 13.84 71.5595 14.84ZM96.0375 3.02C95.9708 3.71333 95.7775 4.32667 95.4575 4.86C95.1375 5.38 94.6375 5.78667 93.9575 6.08C93.2775 6.37333 92.3642 6.52 91.2175 6.52C90.0442 6.52 89.1242 6.38 88.4575 6.1C87.8042 5.80667 87.3375 5.4 87.0575 4.88C86.7775 4.36 86.6108 3.74 86.5575 3.02H89.2175C89.2842 3.75333 89.4708 4.24 89.7775 4.48C90.0842 4.72 90.5842 4.84 91.2775 4.84C91.8508 4.84 92.3175 4.71333 92.6775 4.46C93.0508 4.19333 93.2708 3.71333 93.3375 3.02H96.0375ZM84.5375 7.72H87.2575V14.62C87.2575 14.9533 87.2508 15.3267 87.2375 15.74C87.2242 16.1533 87.2108 16.56 87.1975 16.96C87.1842 17.3467 87.1708 17.6867 87.1575 17.98C87.1442 18.26 87.1308 18.4533 87.1175 18.56H87.1775L93.7775 7.72H97.3975V22H94.6975V15.14C94.6975 14.78 94.7042 14.3867 94.7175 13.96C94.7308 13.52 94.7442 13.1 94.7575 12.7C94.7842 12.3 94.8042 11.9533 94.8175 11.66C94.8442 11.3533 94.8642 11.1533 94.8775 11.06H94.7975L88.1775 22H84.5375V7.72Z" fill="white"/>
</svg>
