<svg width="36" height="36" viewBox="0 0 36 36" fill="none" xmlns="http://www.w3.org/2000/svg">
<path d="M11.9475 9.303C11.6687 9.26242 11.3845 9.31854 11.142 9.462H11.121C10.5585 9.792 10.0515 10.2075 9.61952 10.6965C9.25952 11.112 9.06452 11.532 9.01352 11.937C8.98352 12.177 9.00452 12.42 9.07502 12.6495L9.10202 12.6645C9.50702 13.854 10.035 14.9985 10.68 16.0755C11.5117 17.5882 12.5352 18.9873 13.725 20.238L13.761 20.289L13.818 20.331L13.8525 20.3715L13.8945 20.4075C15.1496 21.601 16.5519 22.6293 18.0675 23.4675C19.8 24.411 20.8515 24.8565 21.483 25.0425V25.0515C21.6675 25.1085 21.8355 25.134 22.005 25.134C22.5428 25.0943 23.0519 24.8756 23.451 24.513C23.9385 24.081 24.351 23.5725 24.672 23.007V22.9965C24.9735 22.4265 24.8715 21.8895 24.4365 21.525C23.5628 20.7616 22.618 20.0835 21.615 19.5C20.943 19.1355 20.2605 19.356 19.9845 19.725L19.395 20.469C19.092 20.838 18.543 20.787 18.543 20.787L18.528 20.796C14.4315 19.7505 13.338 15.603 13.338 15.603C13.338 15.603 13.287 15.039 13.6665 14.751L14.4045 14.157C14.7585 13.869 15.0045 13.188 14.625 12.516C14.0454 11.5121 13.3687 10.5676 12.6045 9.696C12.4379 9.49087 12.2041 9.35116 11.9445 9.3015L11.9475 9.303ZM18.87 7.5C18.6711 7.5 18.4803 7.57902 18.3397 7.71967C18.199 7.86032 18.12 8.05109 18.12 8.25C18.12 8.44891 18.199 8.63968 18.3397 8.78033C18.4803 8.92098 18.6711 9 18.87 9C20.766 9 22.341 9.6195 23.5875 10.8075C24.228 11.457 24.7275 12.2265 25.0545 13.0695C25.383 13.914 25.533 14.8155 25.494 15.7185C25.4857 15.9174 25.5567 16.1115 25.6914 16.2581C25.8262 16.4046 26.0136 16.4916 26.2125 16.5C26.4114 16.5084 26.6055 16.4373 26.7521 16.3026C26.8986 16.1679 26.9857 15.9804 26.994 15.7815C27.0405 14.6707 26.8562 13.5624 26.4525 12.5265C26.0471 11.4857 25.4324 10.5392 24.6465 9.7455L24.6315 9.7305C23.085 8.253 21.129 7.5 18.87 7.5Z" fill="#181818"/>
<path d="M18.8175 9.96601C18.6186 9.96601 18.4278 10.045 18.2872 10.1857C18.1465 10.3263 18.0675 10.5171 18.0675 10.716C18.0675 10.9149 18.1465 11.1057 18.2872 11.2463C18.4278 11.387 18.6186 11.466 18.8175 11.466H18.843C20.211 11.5635 21.207 12.0195 21.9045 12.768C22.62 13.539 22.9905 14.4975 22.962 15.6825C22.9574 15.8814 23.0321 16.074 23.1695 16.2179C23.3069 16.3618 23.4958 16.4452 23.6948 16.4498C23.8937 16.4543 24.0862 16.3797 24.2301 16.2423C24.374 16.1049 24.4574 15.9159 24.462 15.717C24.498 14.1615 23.997 12.819 23.004 11.748V11.745C21.9885 10.656 20.595 10.08 18.918 9.96751L18.8925 9.96451L18.8175 9.96601Z" fill="#181818"/>
<path d="M18.7889 12.4785C18.6886 12.4696 18.5874 12.4811 18.4916 12.5122C18.3958 12.5433 18.3072 12.5934 18.2311 12.6594C18.155 12.7255 18.0931 12.8063 18.0489 12.8968C18.0047 12.9874 17.9793 13.0859 17.974 13.1866C17.9688 13.2872 17.9839 13.3878 18.0184 13.4825C18.0529 13.5772 18.1062 13.6639 18.1749 13.7375C18.2437 13.8112 18.3266 13.8702 18.4187 13.9111C18.5108 13.952 18.6102 13.9739 18.7109 13.9755C19.3379 14.0085 19.7384 14.1975 19.9904 14.451C20.2439 14.706 20.4329 15.1155 20.4674 15.756C20.4693 15.8566 20.4914 15.9559 20.5325 16.0478C20.5735 16.1397 20.6326 16.2224 20.7063 16.291C20.78 16.3596 20.8667 16.4127 20.9614 16.447C21.056 16.4814 21.1566 16.4963 21.2571 16.491C21.3576 16.4856 21.456 16.4601 21.5465 16.4159C21.6369 16.3718 21.7176 16.3098 21.7836 16.2338C21.8496 16.1578 21.8996 16.0693 21.9307 15.9735C21.9618 15.8778 21.9732 15.7768 21.9644 15.6765C21.9164 14.7765 21.6344 13.9815 21.0569 13.3965C20.4764 12.8115 19.6859 12.5265 18.7889 12.4785Z" fill="#181818"/>
<path fill-rule="evenodd" clip-rule="evenodd" d="M10.6005 3.576C15.3736 2.50905 20.3234 2.50905 25.0965 3.576L25.605 3.6885C27.0003 4.00042 28.2817 4.69309 29.3071 5.68953C30.3324 6.68597 31.0613 7.94717 31.413 9.333C32.6245 14.1073 32.6245 19.1087 31.413 23.883C31.0613 25.2688 30.3324 26.53 29.3071 27.5265C28.2817 28.5229 27.0003 29.2156 25.605 29.5275L25.095 29.64C22.1055 30.3085 19.0379 30.5604 15.9795 30.3885L12 33.9495C11.8499 34.0838 11.6666 34.1754 11.4691 34.2147C11.2716 34.254 11.0672 34.2396 10.8771 34.1729C10.6871 34.1063 10.5185 33.9898 10.3888 33.8357C10.2591 33.6817 10.1732 33.4956 10.14 33.297L9.48146 29.364C8.21873 28.9711 7.07787 28.2609 6.16791 27.3013C5.25795 26.3417 4.6093 25.1648 4.28396 23.883C3.07234 19.1087 3.07234 14.1073 4.28396 9.333C4.63559 7.94717 5.36455 6.68597 6.38986 5.68953C7.41517 4.69309 8.69666 4.00042 10.092 3.6885L10.6005 3.576ZM24.606 5.7705C20.1559 4.7757 15.541 4.7757 11.091 5.7705L10.581 5.8845C9.59204 6.10598 8.68386 6.59723 7.95727 7.30369C7.23068 8.01016 6.71412 8.90418 6.46496 9.8865C5.34553 14.2976 5.34553 18.9184 6.46496 23.3295C6.71424 24.312 7.23103 25.2062 7.9579 25.9126C8.68477 26.6191 9.59326 27.1103 10.5825 27.3315L10.7175 27.3615C10.9358 27.4103 11.1347 27.5232 11.2886 27.6857C11.4425 27.8481 11.5445 28.0528 11.5815 28.2735L12.0225 30.9105L14.8305 28.398C14.9426 28.2974 15.0738 28.2203 15.2163 28.1713C15.3588 28.1224 15.5097 28.1025 15.66 28.113C18.6586 28.3257 21.6721 28.1009 24.606 27.4455L25.1145 27.3315C26.1037 27.1103 27.0121 26.6191 27.739 25.9126C28.4659 25.2062 28.9827 24.312 29.232 23.3295C30.351 18.9195 30.351 14.298 29.232 9.8865C28.9827 8.90399 28.4659 8.00983 27.739 7.30335C27.0121 6.59687 26.1037 6.10573 25.1145 5.8845L24.606 5.7705Z" fill="#181818"/>
</svg>
