<svg width="36" height="36" viewBox="0 0 36 36" fill="none" xmlns="http://www.w3.org/2000/svg">
<path fill-rule="evenodd" clip-rule="evenodd" d="M35.1075 25.2975C34.2915 23.6542 33.2163 22.153 31.923 20.8515C31.4905 20.3627 31.0376 19.8923 30.5655 19.4415L30.5085 19.386C30.3332 19.2158 30.1602 19.0433 29.9895 18.8685C31.7574 16.4101 33.2702 13.7781 34.5045 11.013L34.554 10.902L34.5885 10.785C34.752 10.2405 34.938 9.20551 34.278 8.26951C33.594 7.30351 32.5005 7.12951 31.767 7.12951H28.3965C27.6908 7.09735 26.9929 7.28926 26.4029 7.67777C25.8128 8.06629 25.3608 8.6315 25.1115 9.29251C24.3861 11.02 23.478 12.6648 22.4025 14.199V10.2495C22.4025 9.73951 22.3545 8.88451 21.807 8.16451C21.153 7.30051 20.2065 7.12951 19.5495 7.12951H14.2005C13.5025 7.11345 12.8251 7.36645 12.3085 7.83612C11.7919 8.30579 11.4758 8.95615 11.4255 9.65251L11.421 9.72001V9.78751C11.421 10.515 11.709 11.052 11.94 11.3895C12.0435 11.541 12.153 11.679 12.2235 11.766L12.2385 11.7855C12.3135 11.8785 12.363 11.94 12.4125 12.009C12.5445 12.186 12.732 12.462 12.786 13.173V15.3825C11.7123 13.5845 10.8319 11.6779 10.1595 9.69451L10.1475 9.66151L10.1355 9.63001C9.9525 9.15151 9.66 8.45551 9.0735 7.92451C8.3895 7.30201 7.5795 7.12951 6.843 7.12951H3.423C2.6775 7.12951 1.779 7.30351 1.1085 8.01001C0.45 8.70601 0.375 9.54001 0.375 9.98101V10.182L0.417 10.377C1.36395 14.7732 3.31535 18.8906 6.1185 22.407C7.40006 24.428 9.13993 26.1184 11.197 27.3412C13.254 28.564 15.5703 29.2848 17.958 29.445L18.0195 29.4495H18.0825C19.1715 29.4495 20.307 29.355 21.1605 28.7865C22.311 28.0185 22.4025 26.841 22.4025 26.253V24.546C22.698 24.786 23.064 25.107 23.5125 25.539C24.0555 26.082 24.4875 26.553 24.858 26.964L25.056 27.183C25.344 27.504 25.6275 27.8205 25.8855 28.08C26.2095 28.4055 26.61 28.764 27.111 29.0295C27.6555 29.316 28.227 29.4465 28.833 29.4465H32.2545C32.976 29.4465 34.0095 29.2755 34.737 28.4325C35.529 27.5145 35.469 26.388 35.22 25.5795L35.175 25.434L35.1075 25.2975ZM26.5275 25.4565C26.0626 24.9368 25.5839 24.4297 25.092 23.9355L25.0875 23.931C23.052 21.969 22.1025 21.6285 21.4305 21.6285C21.072 21.6285 20.6775 21.6675 20.421 21.9885C20.3055 22.1416 20.2298 22.321 20.2005 22.5105C20.1643 22.7306 20.1483 22.9535 20.1525 23.1765V26.253C20.1525 26.6355 20.0895 26.796 19.9125 26.913C19.677 27.0705 19.1745 27.198 18.096 27.198C16.0473 27.0586 14.061 26.435 12.3003 25.3783C10.5396 24.3217 9.05478 22.8623 7.968 21.12L7.956 21.1005L7.941 21.0825C5.32967 17.8322 3.50977 14.0194 2.625 9.94501C2.631 9.75001 2.673 9.63151 2.742 9.55951C2.8125 9.48451 2.985 9.37951 3.423 9.37951H6.843C7.2225 9.37951 7.4205 9.46351 7.563 9.59101C7.722 9.73801 7.863 9.98551 8.031 10.4265C8.871 12.8955 10.005 15.2055 11.0805 16.902C11.6175 17.751 12.1455 18.4575 12.6225 18.957C12.861 19.206 13.0935 19.413 13.317 19.56C13.5315 19.701 13.776 19.8135 14.028 19.8135C14.16 19.8135 14.3145 19.7985 14.463 19.734C14.6234 19.6632 14.7554 19.5407 14.838 19.386C14.9925 19.104 15.036 18.6885 15.036 18.144V13.0845C14.9565 11.8575 14.586 11.166 14.226 10.6755C14.1531 10.5774 14.0781 10.4809 14.001 10.386L13.9815 10.362C13.9175 10.2843 13.8565 10.2043 13.7985 10.122C13.7247 10.0303 13.6802 9.9184 13.671 9.80101C13.6828 9.68181 13.7396 9.57162 13.83 9.49299C13.9203 9.41435 14.0373 9.37322 14.157 9.37801H19.5495C19.8585 9.37801 19.962 9.45301 20.0145 9.52351C20.0895 9.62101 20.1525 9.82351 20.1525 10.2495V17.0415C20.1525 17.8485 20.5245 18.3945 21.0645 18.3945C21.6855 18.3945 22.134 18.018 22.917 17.235L22.9305 17.22L22.9425 17.2065C24.699 15.0649 26.134 12.6789 27.2025 10.1235L27.2085 10.1055C27.2888 9.87974 27.4407 9.68643 27.6411 9.55508C27.8416 9.42372 28.0794 9.36154 28.3185 9.37801H31.7685C32.2365 9.37801 32.3895 9.49801 32.4405 9.56851C32.493 9.64351 32.5305 9.80401 32.4405 10.119C31.2084 12.8735 29.6852 15.4884 27.897 17.919L27.885 17.937C27.7125 18.2025 27.522 18.4965 27.495 18.8325C27.465 19.1955 27.621 19.524 27.8955 19.878C28.095 20.172 28.5075 20.5755 28.926 20.985L28.965 21.024C29.403 21.453 29.8785 21.918 30.2595 22.368L30.27 22.3785L30.2805 22.3905C31.4166 23.5237 32.3614 24.8337 33.078 26.2695C33.192 26.6595 33.123 26.8605 33.033 26.964C32.9295 27.084 32.697 27.1965 32.256 27.1965H28.833C28.5997 27.2022 28.3689 27.148 28.1625 27.039C27.9096 26.8919 27.6801 26.7079 27.4815 26.493C27.267 26.2785 27.0345 26.019 26.7495 25.7025L26.529 25.4565H26.5275Z" fill="black"/>
</svg>
