<svg width="56" height="56" viewBox="0 0 56 56" fill="none" xmlns="http://www.w3.org/2000/svg">
<rect opacity="0.1" width="55.5839" height="55.5839" fill="#0C3BDC"/>
<g clip-path="url(#clip0_5_195)">
<path d="M28.1112 11.3637C28.4612 11.3609 28.7987 11.4508 29.0987 11.6183L41.8737 17.0223C42.5737 17.3185 43.0424 17.9329 43.0862 18.7454C43.4424 24.7141 41.2612 37.7329 29.1237 43.0954C28.8174 43.2704 28.4112 43.3704 28.1112 43.3642C27.7487 43.3704 27.3987 43.2704 27.0362 43.0954C14.9549 37.7329 12.7768 24.7141 13.1281 18.7454C13.1724 17.9329 13.6443 17.3185 14.3449 17.0223L27.1174 11.6183C27.4211 11.4489 27.7635 11.3612 28.1112 11.3637ZM28.7237 34.0766L34.8549 27.8391C36.6049 26.0329 36.4987 23.0266 34.4737 21.3329C32.8299 19.8516 30.3112 20.1266 28.7237 21.7704L28.1174 22.3704L27.4612 21.7704C25.9299 20.1266 23.3549 19.8516 21.6549 21.3329C19.6862 23.0266 19.5799 26.0329 21.3299 27.8391L27.3549 34.0766C27.7924 34.4579 28.3924 34.4579 28.7237 34.0766Z" fill="#0C3BDC"/>
</g>
<defs>
<clipPath id="clip0_5_195">
<rect width="32" height="32" fill="white" transform="translate(12.0924 11.3641)"/>
</clipPath>
</defs>
</svg>
