<svg width="56" height="56" viewBox="0 0 56 56" fill="none" xmlns="http://www.w3.org/2000/svg">
<rect opacity="0.1" width="55.5839" height="55.5839" fill="#0C3BDC"/>
<path d="M20.5545 16.212V26.3444L27.792 22.7257L35.0295 26.3444V16.212H39.372C39.7559 16.212 40.124 16.3645 40.3955 16.6359C40.667 16.9074 40.8195 17.2756 40.8195 17.6595V40.8194C40.8195 41.2033 40.667 41.5715 40.3955 41.8429C40.124 42.1144 39.7559 42.2669 39.372 42.2669H16.212C15.8281 42.2669 15.4599 42.1144 15.1885 41.8429C14.917 41.5715 14.7645 41.2033 14.7645 40.8194V17.6595C14.7645 17.2756 14.917 16.9074 15.1885 16.6359C15.4599 16.3645 15.8281 16.212 16.212 16.212H20.5545ZM27.792 22.002L21.2783 14.7645H34.3057L27.792 22.002ZM29.2395 26.6861L27.792 25.9623L26.3445 26.6861V39.3719H29.2395V26.6861ZM32.1345 30.6869V33.5819H37.9245V30.6869H32.1345Z" fill="#0C3BDC"/>
</svg>
