<svg width="56" height="56" viewBox="0 0 56 56" fill="none" xmlns="http://www.w3.org/2000/svg">
<rect opacity="0.1" x="-3.05176e-05" width="55.5839" height="55.5839" fill="#0C3BDC"/>
<path d="M30.828 24.9732C30.5779 24.7232 30.2388 24.5828 29.8853 24.5828C29.5317 24.5828 29.1927 24.7232 28.9426 24.9732L28 25.9145C27.754 26.1692 27.4597 26.3723 27.1344 26.5121C26.809 26.6519 26.4591 26.7254 26.105 26.7285C25.7509 26.7316 25.3998 26.6641 25.0721 26.53C24.7444 26.3959 24.4466 26.1979 24.1962 25.9475C23.9459 25.6972 23.7478 25.3994 23.6138 25.0717C23.4797 24.744 23.4122 24.3928 23.4153 24.0388C23.4184 23.6847 23.4919 23.3348 23.6317 23.0094C23.7714 22.6841 23.9746 22.3898 24.2293 22.1438L31.736 14.6345C33.5132 14.2303 35.3726 14.3966 37.0499 15.1099C38.7271 15.8232 40.1368 17.0472 41.0785 18.6077C42.0201 20.1682 42.4458 21.9859 42.2951 23.8023C42.1443 25.6186 41.4247 27.3413 40.2386 28.7252L37.428 31.5718L30.828 24.9718V24.9732ZM16.2146 16.9572C17.5943 15.5777 19.3989 14.7038 21.3367 14.4768C23.2745 14.2499 25.2322 14.6831 26.8933 15.7065L22.3426 20.2585C21.357 21.2421 20.7952 22.5722 20.7772 23.9646C20.7592 25.3569 21.2865 26.7011 22.2463 27.7099C23.2062 28.7186 24.5225 29.312 25.914 29.3632C27.3055 29.4144 28.6619 28.9193 29.6933 27.9838L29.8853 27.8012L35.5426 33.4572L29.8853 39.1145C29.3852 39.6144 28.7071 39.8953 28 39.8953C27.2929 39.8953 26.6147 39.6144 26.1146 39.1145L16.2133 29.2132C14.5881 27.5879 13.6751 25.3836 13.6751 23.0852C13.6751 20.7867 14.5881 18.5824 16.2133 16.9572H16.2146Z" fill="#0C3BDC"/>
</svg>
