<svg width="295" height="14" viewBox="0 0 295 14" fill="none" xmlns="http://www.w3.org/2000/svg">
<path fill-rule="evenodd" clip-rule="evenodd" d="M97.7987 1.22544C65.2676 0.937977 32.6038 1.98852 1.11637 6.39977C0.554575 6.47816 0.321357 6.63236 0.275393 6.66763C0.00641455 6.8767 -0.022576 7.09882 0.0114718 7.28175C0.0319006 7.39282 0.169854 7.8619 0.924015 7.91024C1.44495 7.94291 5.14249 7.71425 6.56909 7.65545C13.285 7.37975 19.9874 6.98645 26.6863 6.53174C41.8751 5.50471 57.0434 4.61619 72.256 3.80738C80.7969 3.35267 89.3412 2.97634 97.8804 2.66797C118.423 2.85221 138.915 3.57087 159.024 4.31305C151.031 4.69067 143.687 5.07352 137.597 5.32178C127.328 5.73991 117.078 6.23382 106.83 6.88453C101.564 7.21772 96.3057 7.57968 91.0504 8.00695C90.4681 8.0553 89.142 8.10494 88.5002 8.16374C88.2278 8.18726 88.0304 8.22516 87.9418 8.25129C87.3868 8.41593 87.3171 8.75303 87.3102 8.9229C87.3068 9.02612 87.3528 9.5893 88.2891 9.69905C131.824 14.8499 177.244 8.85757 220.936 13.8647C221.449 13.9234 221.929 13.6517 222.005 13.2571C222.082 12.8638 221.728 12.4953 221.214 12.4365C180.063 7.72078 137.379 12.7631 96.1763 9.06141C99.7769 8.79354 103.379 8.55181 106.985 8.32315C117.214 7.67374 127.446 7.18115 137.698 6.76302C148.014 6.34358 161.96 5.52431 176.558 5.00818C189.086 5.54391 201.607 6.14496 214.137 6.65456C219.423 6.86885 224.71 7.04656 229.995 7.26477C232.167 7.35362 237.756 7.72601 238.566 7.5875C239.196 7.47905 239.348 7.1328 239.385 6.95901C239.424 6.77086 239.4 6.53696 239.114 6.31352C239.026 6.24296 238.76 6.09662 238.216 5.97641C223.481 2.73723 199.355 2.78819 176.759 3.57087C171.899 3.3618 167.038 3.16319 162.176 2.98418C151.046 2.57259 139.793 2.15968 128.476 1.83433C160.37 1.22935 192.28 1.40314 224.198 1.84087C237.599 2.0251 273.722 3.13576 287.949 4.11705C287.776 4.25425 287.673 4.44502 287.685 4.65278C287.709 5.05 288.15 5.35837 288.669 5.34008C291.604 5.23554 293.302 5.10227 293.974 4.96507C294.393 4.88014 294.621 4.74424 294.726 4.65539C294.985 4.4411 295.033 4.21112 294.982 3.99291C294.949 3.85702 294.869 3.70807 294.686 3.57087C294.563 3.47679 294.263 3.33306 293.753 3.23507C288.16 2.16753 240.189 0.61653 224.232 0.397013C182.065 -0.180526 139.916 -0.298113 97.7987 1.22544ZM226.81 5.69156C218.57 4.83309 208.911 4.53125 198.834 4.55085C203.967 4.77952 209.101 5.00296 214.237 5.21203C218.427 5.3832 222.618 5.52953 226.81 5.69156ZM58.9365 3.09003C48.1263 3.70154 37.328 4.3627 26.5212 5.09442C25.2733 5.17805 24.0272 5.26037 22.7793 5.34138C34.7301 4.21767 46.8052 3.50293 58.9365 3.09003Z" fill="#0C3BDC"/>
</svg>
